<svg width="745" height="45" viewBox="0 0 745 45" fill="none" xmlns="http://www.w3.org/2000/svg">
<path d="M101.268 22.5254C101.268 25.8262 100.857 28.834 100.037 31.5488C99.2168 34.2441 97.9668 36.5684 96.2871 38.5215C94.627 40.4746 92.5176 41.9785 89.959 43.0332C87.4004 44.0684 84.373 44.5859 80.877 44.5859C77.3809 44.5859 74.3535 44.0684 71.7949 43.0332C69.2363 41.9785 67.1172 40.4746 65.4375 38.5215C63.7773 36.5684 62.5371 34.2344 61.7168 31.5195C60.8965 28.8047 60.4863 25.7871 60.4863 22.4668C60.4863 18.0332 61.209 14.1758 62.6543 10.8945C64.1191 7.59375 66.3652 5.03516 69.3926 3.21875C72.4199 1.40234 76.2676 0.494141 80.9355 0.494141C85.584 0.494141 89.4023 1.40234 92.3906 3.21875C95.3984 5.03516 97.625 7.59375 99.0703 10.8945C100.535 14.1953 101.268 18.0723 101.268 22.5254ZM70.0078 22.5254C70.0078 25.5137 70.3789 28.0918 71.1211 30.2598C71.8828 32.4082 73.0645 34.0684 74.666 35.2402C76.2676 36.3926 78.3379 36.9688 80.877 36.9688C83.4551 36.9688 85.5449 36.3926 87.1465 35.2402C88.748 34.0684 89.9102 32.4082 90.6328 30.2598C91.375 28.0918 91.7461 25.5137 91.7461 22.5254C91.7461 18.0332 90.9062 14.498 89.2266 11.9199C87.5469 9.3418 84.7832 8.05273 80.9355 8.05273C78.377 8.05273 76.2871 8.63867 74.666 9.81055C73.0645 10.9629 71.8828 12.623 71.1211 14.791C70.3789 16.9395 70.0078 19.5176 70.0078 22.5254Z" fill="#001219"/>
<path d="M123.526 1.16797C129.054 1.16797 133.087 2.35938 135.626 4.74219C138.165 7.10547 139.434 10.3672 139.434 14.5273C139.434 16.4023 139.151 18.1992 138.585 19.918C138.018 21.6172 137.091 23.1309 135.802 24.459C134.532 25.7871 132.833 26.8418 130.704 27.623C128.575 28.3848 125.948 28.7656 122.823 28.7656H118.927V44H109.845V1.16797H123.526ZM123.057 8.60938H118.927V21.3242H121.915C123.614 21.3242 125.089 21.0996 126.339 20.6504C127.589 20.2012 128.555 19.498 129.239 18.541C129.923 17.584 130.264 16.3535 130.264 14.8496C130.264 12.7402 129.679 11.1777 128.507 10.1621C127.335 9.12695 125.518 8.60938 123.057 8.60938Z" fill="#001219"/>
<path d="M171.888 44H147.22V1.16797H171.888V8.60938H156.302V18.0137H170.804V25.4551H156.302V36.5H171.888V44Z" fill="#001219"/>
<path d="M218.551 44H207.008L188.375 11.5977H188.112C188.19 12.9453 188.258 14.3027 188.317 15.6699C188.375 17.0371 188.434 18.4043 188.493 19.7715C188.551 21.1191 188.61 22.4766 188.668 23.8438V44H180.553V1.16797H192.008L210.612 33.248H210.817C210.778 31.9199 210.729 30.6016 210.67 29.293C210.612 27.9844 210.553 26.6758 210.495 25.3672C210.455 24.0586 210.416 22.75 210.377 21.4414V1.16797H218.551V44Z" fill="#001219"/>
<path d="M260.871 44H251.789V8.72656H240.158V1.16797H272.502V8.72656H260.871V44Z" fill="#001219"/>
<path d="M303.462 44H278.794V1.16797H303.462V8.60938H287.876V18.0137H302.378V25.4551H287.876V36.5H303.462V44Z" fill="#001219"/>
<path d="M330.32 8.11133C328.582 8.11133 327.039 8.45312 325.691 9.13672C324.363 9.80078 323.24 10.7676 322.322 12.0371C321.423 13.3066 320.74 14.8398 320.271 16.6367C319.802 18.4336 319.568 20.4551 319.568 22.7012C319.568 25.7285 319.939 28.3164 320.681 30.4648C321.443 32.5938 322.615 34.2246 324.197 35.3574C325.779 36.4707 327.82 37.0273 330.32 37.0273C332.058 37.0273 333.796 36.832 335.535 36.4414C337.293 36.0508 339.197 35.4941 341.248 34.7715V42.3887C339.353 43.1699 337.488 43.7266 335.652 44.0586C333.816 44.4102 331.755 44.5859 329.47 44.5859C325.056 44.5859 321.423 43.6777 318.572 41.8613C315.74 40.0254 313.64 37.4668 312.273 34.1855C310.906 30.8848 310.222 27.0371 310.222 22.6426C310.222 19.4004 310.662 16.4316 311.541 13.7363C312.42 11.041 313.709 8.70703 315.408 6.73438C317.107 4.76172 319.207 3.23828 321.707 2.16406C324.207 1.08984 327.078 0.552734 330.32 0.552734C332.449 0.552734 334.578 0.826172 336.707 1.37305C338.855 1.90039 340.906 2.63281 342.859 3.57031L339.929 10.9531C338.328 10.1914 336.716 9.52734 335.095 8.96094C333.474 8.39453 331.882 8.11133 330.32 8.11133Z" fill="#001219"/>
<path d="M385.186 44H376.133V25.5137H359.17V44H350.088V1.16797H359.17V17.9551H376.133V1.16797H385.186V44Z" fill="#001219"/>
<path d="M411.012 44V1.16797H420.094V36.5H437.467V44H411.012Z" fill="#001219"/>
<path d="M469.305 44H444.638V1.16797H469.305V8.60938H453.72V18.0137H468.221V25.4551H453.72V36.5H469.305V44Z" fill="#001219"/>
<path d="M511.574 1.16797L497.013 44H487.111L472.58 1.16797H481.75L489.806 26.6562C489.943 27.0859 490.168 27.8965 490.48 29.0879C490.793 30.2598 491.105 31.5098 491.418 32.8379C491.75 34.1465 491.974 35.2305 492.091 36.0898C492.209 35.2305 492.414 34.1465 492.707 32.8379C493.019 31.5293 493.322 30.2891 493.615 29.1172C493.927 27.9258 494.152 27.1055 494.289 26.6562L502.404 1.16797H511.574Z" fill="#001219"/>
<path d="M541.362 44H516.694V1.16797H541.362V8.60938H525.776V18.0137H540.278V25.4551H525.776V36.5H541.362V44Z" fill="#001219"/>
<path d="M550.027 44V1.16797H559.109V36.5H576.482V44H550.027Z" fill="#001219"/>
<path d="M583.652 44V1.16797H592.734V44H583.652Z" fill="#001219"/>
<path d="M641.214 44H629.671L611.038 11.5977H610.774C610.852 12.9453 610.921 14.3027 610.979 15.6699C611.038 17.0371 611.096 18.4043 611.155 19.7715C611.214 21.1191 611.272 22.4766 611.331 23.8438V44H603.216V1.16797H614.671L633.274 33.248H633.479C633.44 31.9199 633.391 30.6016 633.333 29.293C633.274 27.9844 633.216 26.6758 633.157 25.3672C633.118 24.0586 633.079 22.75 633.04 21.4414V1.16797H641.214V44Z" fill="#001219"/>
<path d="M667.984 19.9473H684.976V42.1543C682.73 42.8965 680.396 43.4922 677.974 43.9414C675.552 44.3711 672.808 44.5859 669.742 44.5859C665.484 44.5859 661.871 43.7461 658.902 42.0664C655.933 40.3867 653.677 37.9062 652.134 34.625C650.591 31.3438 649.82 27.3105 649.82 22.5254C649.82 18.0332 650.679 14.1465 652.398 10.8652C654.136 7.58398 656.666 5.04492 659.986 3.24805C663.326 1.45117 667.398 0.552734 672.203 0.552734C674.468 0.552734 676.705 0.796875 678.912 1.28516C681.119 1.77344 683.121 2.4082 684.918 3.18945L681.9 10.4551C680.591 9.79102 679.097 9.23438 677.418 8.78516C675.738 8.33594 673.98 8.11133 672.144 8.11133C669.507 8.11133 667.213 8.7168 665.259 9.92773C663.326 11.1387 661.822 12.8379 660.748 15.0254C659.693 17.1934 659.166 19.752 659.166 22.7012C659.166 25.4941 659.547 27.9746 660.308 30.1426C661.07 32.291 662.271 33.9805 663.912 35.2109C665.552 36.4219 667.691 37.0273 670.328 37.0273C671.617 37.0273 672.701 36.9688 673.58 36.8516C674.478 36.7148 675.318 36.5781 676.099 36.4414V27.5059H667.984V19.9473Z" fill="#001219"/>
<path d="M31 3H45V13H31V3Z" fill="#AE2112"/>
<path d="M14 19H45V29H14V19Z" fill="#EE9B01"/>
<path d="M0 34H45V44H0V34Z" fill="#025F73"/>
<path d="M714 3H700V13H714V3Z" fill="#AE2112"/>
<path d="M731 19H700V29H731V19Z" fill="#EE9B01"/>
<path d="M745 34H700V44H745V34Z" fill="#025F73"/>
</svg>
