<svg width="375" height="26" viewBox="0 0 375 26" fill="none" xmlns="http://www.w3.org/2000/svg">
<path d="M17.4288 1.92082H25.2999V7.59081H17.4288V1.92082Z" fill="#AE2112"/>
<path d="M7.87106 10.9928H25.2999V16.6628H7.87106V10.9928Z" fill="#EE9B01"/>
<path d="M0 19.4978H25.2999V25.1678H0V19.4978Z" fill="#025F73"/>
<path d="M357.571 1.92082H349.7V7.59081H357.571V1.92082Z" fill="#AE2112"/>
<path d="M367.129 10.9928H349.7V16.6628H367.129V10.9928Z" fill="#EE9B01"/>
<path d="M375 19.4978H349.7V25.1678H375V19.4978Z" fill="#025F73"/>
<path d="M56.3723 12.9917C56.3723 14.8632 56.1417 16.5687 55.6805 18.108C55.2193 19.6362 54.5166 20.954 53.5722 22.0615C52.6388 23.1689 51.4529 24.0216 50.0144 24.6196C48.5759 25.2065 46.8739 25.5 44.9083 25.5C42.9428 25.5 41.2407 25.2065 39.8022 24.6196C38.3638 24.0216 37.1723 23.1689 36.228 22.0615C35.2946 20.954 34.5973 19.6307 34.1361 18.0914C33.6749 16.552 33.4443 14.8411 33.4443 12.9585C33.4443 10.4446 33.8506 8.25748 34.6632 6.39701C35.4868 4.52547 36.7496 3.07475 38.4516 2.04485C40.1536 1.01495 42.3169 0.5 44.9413 0.5C47.5547 0.5 49.7015 1.01495 51.3815 2.04485C53.0726 3.07475 54.3244 4.52547 55.137 6.39701C55.9605 8.26855 56.3723 10.4668 56.3723 12.9917ZM38.7975 12.9917C38.7975 14.686 39.0061 16.1478 39.4234 17.3771C39.8517 18.5952 40.516 19.5365 41.4164 20.201C42.3169 20.8544 43.4808 21.1811 44.9083 21.1811C46.3578 21.1811 47.5328 20.8544 48.4332 20.201C49.3336 19.5365 49.987 18.5952 50.3933 17.3771C50.8105 16.1478 51.0192 14.686 51.0192 12.9917C51.0192 10.4446 50.547 8.4402 49.6026 6.97841C48.6583 5.51661 47.1045 4.78571 44.9413 4.78571C43.5028 4.78571 42.3278 5.11794 41.4164 5.78239C40.516 6.43577 39.8517 7.37708 39.4234 8.60631C39.0061 9.82447 38.7975 11.2863 38.7975 12.9917Z" fill="#001219"/>
<path d="M68.8865 0.88206C71.9941 0.88206 74.2616 1.55759 75.6892 2.90864C77.1167 4.24862 77.8304 6.09801 77.8304 8.45681C77.8304 9.51993 77.6712 10.5388 77.3528 11.5133C77.0343 12.4767 76.5127 13.335 75.788 14.088C75.0742 14.8411 74.1189 15.4391 72.922 15.8821C71.7251 16.314 70.2482 16.5299 68.4912 16.5299H66.3005V25.1678H61.1945V0.88206H68.8865ZM68.623 5.10133H66.3005V12.3106H67.9806C68.9359 12.3106 69.765 12.1833 70.4678 11.9286C71.1705 11.6739 71.7141 11.2752 72.0984 10.7326C72.4828 10.1899 72.6749 9.49225 72.6749 8.63953C72.6749 7.44352 72.3455 6.55759 71.6866 5.98173C71.0278 5.3948 70.0066 5.10133 68.623 5.10133Z" fill="#001219"/>
<path d="M96.0766 25.1678H82.2078V0.88206H96.0766V5.10133H87.3139V10.4336H95.4672V14.6528H87.3139V20.9153H96.0766V25.1678Z" fill="#001219"/>
<path d="M122.311 25.1678H115.822L105.346 6.79568H105.198C105.242 7.5598 105.28 8.32946 105.313 9.10465C105.346 9.87985 105.379 10.655 105.412 11.4302C105.445 12.1944 105.478 12.964 105.511 13.7392V25.1678H100.948V0.88206H107.388L117.848 19.0714H117.963C117.941 18.3184 117.914 17.5709 117.881 16.8289C117.848 16.0869 117.815 15.345 117.782 14.603C117.76 13.861 117.738 13.119 117.716 12.3771V0.88206H122.311V25.1678Z" fill="#001219"/>
<path d="M146.104 25.1678H140.998V5.16777H134.459V0.88206H152.644V5.16777H146.104V25.1678Z" fill="#001219"/>
<path d="M170.05 25.1678H156.181V0.88206H170.05V5.10133H161.287V10.4336H169.44V14.6528H161.287V20.9153H170.05V25.1678Z" fill="#001219"/>
<path d="M185.15 4.81894C184.173 4.81894 183.305 5.01274 182.547 5.40033C181.801 5.77685 181.169 6.32503 180.653 7.04485C180.148 7.76467 179.764 8.634 179.5 9.65282C179.237 10.6717 179.105 11.8178 179.105 13.0914C179.105 14.8079 179.314 16.2752 179.731 17.4934C180.159 18.7004 180.818 19.6251 181.707 20.2674C182.597 20.8987 183.744 21.2143 185.15 21.2143C186.127 21.2143 187.104 21.1035 188.082 20.8821C189.07 20.6606 190.141 20.345 191.294 19.9352V24.2542C190.229 24.6971 189.18 25.0127 188.148 25.201C187.115 25.4003 185.957 25.5 184.672 25.5C182.191 25.5 180.148 24.9851 178.545 23.9551C176.953 22.9142 175.772 21.4635 175.004 19.603C174.235 17.7315 173.851 15.5498 173.851 13.0581C173.851 11.2198 174.098 9.53654 174.592 8.00831C175.086 6.48007 175.811 5.1567 176.766 4.03821C177.721 2.91971 178.902 2.05592 180.307 1.44684C181.713 0.837763 183.327 0.533223 185.15 0.533223C186.347 0.533223 187.544 0.688261 188.741 0.998339C189.949 1.29734 191.101 1.71262 192.2 2.24419L190.552 6.43023C189.652 5.99834 188.746 5.62182 187.835 5.30066C186.923 4.97951 186.028 4.81894 185.15 4.81894Z" fill="#001219"/>
<path d="M215.997 25.1678H210.907V14.686H201.37V25.1678H196.264V0.88206H201.37V10.4003H210.907V0.88206H215.997V25.1678Z" fill="#001219"/>
<path d="M230.516 25.1678V0.88206H235.622V20.9153H245.39V25.1678H230.516Z" fill="#001219"/>
<path d="M263.29 25.1678H249.421V0.88206H263.29V5.10133H254.527V10.4336H262.681V14.6528H254.527V20.9153H263.29V25.1678Z" fill="#001219"/>
<path d="M287.054 0.88206L278.868 25.1678H273.301L265.131 0.88206H270.287L274.816 15.3339C274.893 15.5775 275.019 16.0371 275.195 16.7126C275.371 17.3771 275.546 18.0858 275.722 18.8389C275.909 19.5808 276.035 20.1955 276.101 20.6827C276.167 20.1955 276.282 19.5808 276.447 18.8389C276.622 18.0969 276.793 17.3937 276.957 16.7292C277.133 16.0537 277.259 15.5886 277.336 15.3339L281.899 0.88206H287.054Z" fill="#001219"/>
<path d="M303.802 25.1678H289.933V0.88206H303.802V5.10133H295.039V10.4336H303.192V14.6528H295.039V20.9153H303.802V25.1678Z" fill="#001219"/>
<path d="M308.673 25.1678V0.88206H313.779V20.9153H323.547V25.1678H308.673Z" fill="#001219"/>
<path d="M341.793 18.4236C341.793 19.8632 341.447 21.1146 340.755 22.1777C340.063 23.2409 339.053 24.0604 337.724 24.6362C336.407 25.2121 334.804 25.5 332.915 25.5C332.08 25.5 331.262 25.4446 330.461 25.3339C329.67 25.2231 328.907 25.0626 328.171 24.8522C327.446 24.6307 326.755 24.3594 326.096 24.0382V19.2542C327.238 19.7636 328.424 20.2231 329.654 20.6329C330.883 21.0426 332.102 21.2475 333.31 21.2475C334.145 21.2475 334.815 21.1368 335.32 20.9153C335.836 20.6938 336.209 20.3893 336.44 20.0017C336.67 19.6141 336.786 19.1711 336.786 18.6728C336.786 18.0637 336.582 17.5432 336.176 17.1113C335.77 16.6794 335.21 16.2752 334.496 15.8987C333.793 15.5221 332.997 15.1179 332.108 14.686C331.548 14.4203 330.938 14.0991 330.279 13.7226C329.621 13.335 328.995 12.8643 328.402 12.3106C327.809 11.7569 327.32 11.0869 326.936 10.3007C326.562 9.50332 326.376 8.55094 326.376 7.44352C326.376 5.9928 326.705 4.75249 327.364 3.72259C328.023 2.69269 328.962 1.90642 330.181 1.36379C331.41 0.810078 332.86 0.533223 334.529 0.533223C335.781 0.533223 336.972 0.682724 338.103 0.981728C339.245 1.26966 340.437 1.69048 341.678 2.24419L340.03 6.24751C338.921 5.79347 337.928 5.44463 337.049 5.201C336.171 4.94629 335.276 4.81894 334.364 4.81894C333.727 4.81894 333.184 4.92414 332.734 5.13455C332.283 5.33389 331.943 5.62182 331.712 5.99834C331.482 6.36379 331.367 6.79014 331.367 7.27741C331.367 7.85327 331.531 8.34053 331.861 8.7392C332.201 9.1268 332.706 9.50332 333.376 9.86877C334.057 10.2342 334.902 10.6606 335.913 11.1478C337.142 11.7348 338.191 12.3494 339.059 12.9917C339.937 13.6229 340.612 14.3704 341.085 15.2342C341.557 16.0869 341.793 17.1501 341.793 18.4236Z" fill="#001219"/>
</svg>
